<svg width="48" height="48" viewBox="0 0 48 48" fill="none" xmlns="http://www.w3.org/2000/svg">
<rect width="48" height="48" rx="24" fill="#DAD9F7"/>
<path fill-rule="evenodd" clip-rule="evenodd" d="M24.011 11C16.5681 11 10.5513 16.9583 10.5513 24.3296C10.5513 30.2219 14.4065 35.2095 19.7547 36.9748C20.4234 37.1075 20.6683 36.688 20.6683 36.3351C20.6683 36.0261 20.6462 34.9669 20.6462 33.8632C16.9021 34.6578 16.1224 32.2742 16.1224 32.2742C15.5206 30.7294 14.6291 30.3324 14.6291 30.3324C13.4036 29.5158 14.7184 29.5158 14.7184 29.5158C16.0777 29.6041 16.791 30.884 16.791 30.884C17.9942 32.9142 19.9329 32.3406 20.7129 31.9874C20.8242 31.1267 21.181 30.5309 21.5598 30.1999C18.5736 29.8909 15.4317 28.7434 15.4317 23.6233C15.4317 22.1667 15.9661 20.9751 16.8131 20.0483C16.6794 19.7173 16.2114 18.3488 16.947 16.5171C16.947 16.5171 18.0834 16.164 20.646 17.8854C21.7431 17.5936 22.8745 17.4452 24.011 17.4439C25.1475 17.4439 26.306 17.5986 27.3759 17.8854C29.9386 16.164 31.0751 16.5171 31.0751 16.5171C31.8107 18.3488 31.3424 19.7173 31.2087 20.0483C32.078 20.9751 32.5904 22.1667 32.5904 23.6233C32.5904 28.7434 29.4485 29.8687 26.4399 30.1999C26.9303 30.6192 27.3535 31.4135 27.3535 32.6715C27.3535 34.459 27.3315 35.8936 27.3315 36.3348C27.3315 36.688 27.5767 37.1075 28.2451 36.9751C33.5933 35.2092 37.4485 30.2219 37.4485 24.3296C37.4705 16.9583 31.4316 11 24.011 11Z" fill="#24292F"/>
</svg>
